<mxfile host="app.diagrams.net" agent="Mozilla/5.0 (Windows NT 10.0; Win64; x64) AppleWebKit/537.36 (KHTML, like Gecko) Chrome/127.0.0.0 Safari/537.36 Edg/127.0.0.0" version="24.7.6">
  <diagram name="第 1 页" id="FeokBnFk75L_szwhoE2-">
    <mxGraphModel dx="1786" dy="757" grid="1" gridSize="10" guides="1" tooltips="1" connect="1" arrows="1" fold="1" page="0" pageScale="1" pageWidth="827" pageHeight="1169" math="0" shadow="0">
      <root>
        <mxCell id="0" />
        <mxCell id="1" parent="0" />
        <mxCell id="rjWY6HScssMi8YFPxf11-1" value="&lt;p style=&quot;margin-bottom: 0.0001pt; line-height: 20pt; background-image: initial; background-position: initial; background-size: initial; background-repeat: initial; background-attachment: initial; background-origin: initial; background-clip: initial;&quot; class=&quot;MsoNormal&quot;&gt;&lt;span style=&quot;font-size: 12pt; font-family: 宋体;&quot;&gt;意见&lt;span lang=&quot;EN-US&quot;&gt;5&lt;/span&gt;：&lt;span lang=&quot;EN-US&quot;&gt;2.2&lt;/span&gt;的物理建模部分作者更注重的是介绍模型的基本原理。但是本文的主题是电池快充策略，因此重点应该是介绍这些模型如何用于快充策略开发的。&lt;/span&gt;&lt;span style=&quot;font-size: 9pt; font-family: Helvetica, sans-serif;&quot; lang=&quot;EN-US&quot;&gt;&lt;/span&gt;&lt;/p&gt;&lt;p style=&quot;margin-bottom: 0cm; text-align: center; line-height: normal; background-image: initial; background-position: initial; background-size: initial; background-repeat: initial; background-attachment: initial; background-origin: initial; background-clip: initial;&quot; align=&quot;center&quot; class=&quot;MsoNormal&quot;&gt;&lt;br&gt;&lt;br&gt;&lt;/p&gt;&lt;p style=&quot;margin: 7.8pt 0cm 3.9pt; line-height: normal; background-image: initial; background-position: initial; background-size: initial; background-repeat: initial; background-attachment: initial; background-origin: initial; background-clip: initial;&quot; class=&quot;MsoNormal&quot;&gt;&lt;b&gt;&lt;span style=&quot;font-size:12.0pt;font-family:&lt;br/&gt;宋体;mso-bidi-font-family:Helvetica;color:#6600FF;mso-font-kerning:0pt;&lt;br/&gt;mso-ligatures:none&quot;&gt;回复：电池模型在快速充电策略设计中起到了重要作用，物理模型有着坚实的理论基础，因此被广泛应用于快速充电设计研究。为了使物理建模部分紧扣快速充电策略设计的主题，我们在每一类基本模型的原理介绍之中补充了其在快充策略设计中的应用，具体如下。&lt;/span&gt;&lt;/b&gt;&lt;b&gt;&lt;span style=&quot;font-size:9.0pt;&lt;br/&gt;font-family:&amp;quot;Helvetica&amp;quot;,sans-serif;mso-fareast-font-family:宋体;color:#6600FF;&lt;br/&gt;mso-font-kerning:0pt;mso-ligatures:none&quot; lang=&quot;EN-US&quot;&gt;&lt;/span&gt;&lt;/b&gt;&lt;/p&gt;&lt;p style=&quot;margin: 7.8pt 0cm 3.9pt; line-height: normal; background-image: initial; background-position: initial; background-size: initial; background-repeat: initial; background-attachment: initial; background-origin: initial; background-clip: initial;&quot; class=&quot;MsoNormal&quot;&gt;&lt;b&gt;&lt;span style=&quot;font-size:12.0pt;font-family:&lt;br/&gt;宋体;mso-bidi-font-family:Helvetica;color:#6600FF;mso-font-kerning:0pt;&lt;br/&gt;mso-ligatures:none&quot;&gt;&lt;br&gt;&lt;/span&gt;&lt;/b&gt;&lt;/p&gt;&lt;p style=&quot;margin-bottom: 0.0001pt; line-height: 20pt; background-image: initial; background-position: initial; background-size: initial; background-repeat: initial; background-attachment: initial; background-origin: initial; background-clip: initial;&quot; class=&quot;MsoNormal&quot;&gt;&lt;span style=&quot;font-size: 12pt; font-family: 宋体;&quot;&gt;意见&lt;span lang=&quot;EN-US&quot;&gt;6&lt;/span&gt;：本文的主题是快充策略，但是从图&lt;span lang=&quot;EN-US&quot;&gt;7&lt;/span&gt;中完全没有看到快充相关的内容。&lt;/span&gt;&lt;span style=&quot;font-size: 9pt; font-family: Helvetica, sans-serif;&quot; lang=&quot;EN-US&quot;&gt;&lt;/span&gt;&lt;/p&gt;&lt;p style=&quot;margin: 7.8pt 0cm 3.9pt; text-align: justify; line-height: normal; background-image: initial; background-position: initial; background-size: initial; background-repeat: initial; background-attachment: initial; background-origin: initial; background-clip: initial;&quot; class=&quot;MsoNormal&quot;&gt;&lt;b&gt;&lt;span style=&quot;font-size:12.0pt;font-family:宋体;mso-bidi-font-family:Helvetica;&lt;br/&gt;color:#6600FF;mso-font-kerning:0pt;mso-ligatures:none&quot;&gt;回复：由于依赖于实验数据，泛化能力较差等原因，目前的快速充电策略设计研究暂未广泛应用基于机器学习方法的电池模型（如图七中的各类模型）。然而机器学习方法的灵活性与高效性能够有效优化快速策略的设计过程。因此我们提出，尝试利用现有的机器学习电池模型&lt;span lang=&quot;EN-US&quot;&gt;/&lt;/span&gt;开发适用于快速充电设计的机器学习电池模型，可能将是一个有意义的研究方向。&lt;/span&gt;&lt;/b&gt;&lt;b&gt;&lt;span style=&quot;font-size:9.0pt;&lt;br/&gt;font-family:&amp;quot;Helvetica&amp;quot;,sans-serif;mso-fareast-font-family:宋体;color:#6600FF;&lt;br/&gt;mso-font-kerning:0pt;mso-ligatures:none&quot; lang=&quot;EN-US&quot;&gt;&lt;/span&gt;&lt;/b&gt;&lt;/p&gt;&lt;p style=&quot;margin-bottom: 0.0001pt; text-align: justify; line-height: normal; background-image: initial; background-position: initial; background-size: initial; background-repeat: initial; background-attachment: initial; background-origin: initial; background-clip: initial;&quot; class=&quot;MsoNormal&quot;&gt;&lt;span style=&quot;font-size: 10pt; font-family: 宋体;&quot;&gt;（&lt;/span&gt;&lt;span style=&quot;font-size: 10pt; font-family: &amp;quot;Times New Roman&amp;quot;, serif;&quot; lang=&quot;EN-US&quot;&gt;1&lt;/span&gt;&lt;span style=&quot;font-size: 10pt; font-family: 宋体;&quot;&gt;）&lt;/span&gt;&lt;b&gt;&lt;span style=&quot;font-size:10.0pt;font-family:宋体;mso-bidi-font-family:Helvetica;&lt;br/&gt;color:#6600FF;mso-font-kerning:0pt;mso-ligatures:none&quot;&gt;图&lt;/span&gt;&lt;/b&gt;&lt;b&gt;&lt;span style=&quot;font-size:10.0pt;&lt;br/&gt;font-family:&amp;quot;Times New Roman&amp;quot;,serif;mso-fareast-font-family:宋体;color:#6600FF;&lt;br/&gt;mso-font-kerning:0pt;mso-ligatures:none&quot; lang=&quot;EN-US&quot;&gt;7&lt;/span&gt;&lt;/b&gt;&lt;span style=&quot;font-size: 10pt; font-family: 宋体;&quot;&gt;归纳总结了电池建模中常用的机器学习方法，可将建模过程抽象为三层。第一层为物理信息&lt;/span&gt;&lt;span style=&quot;font-size: 10pt; font-family: &amp;quot;Times New Roman&amp;quot;, serif;&quot; lang=&quot;EN-US&quot;&gt;/&lt;/span&gt;&lt;span style=&quot;font-size: 10pt; font-family: 宋体;&quot;&gt;数据信息层，包含各类电池机理等先验物理知识，以及通过电池测试实验得到的充放电数据；第二层为机器学习方法层，融合第一层的物理信息，设计高效的机器学习模型，并利用数据进行模型更新与知识学习；最后一层为模型预测&lt;/span&gt;&lt;span style=&quot;font-size: 10pt; font-family: &amp;quot;Times New Roman&amp;quot;, serif;&quot; lang=&quot;EN-US&quot;&gt;/&lt;/span&gt;&lt;span style=&quot;font-size: 10pt; font-family: 宋体;&quot;&gt;验证层，通过对比模型预测输出与真实值的差距，对模型进行验证与评价。&lt;/span&gt;&lt;b&gt;&lt;span style=&quot;font-size:10.0pt;font-family:&lt;br/&gt;宋体;mso-bidi-font-family:Helvetica;color:#6600FF;mso-font-kerning:0pt;&lt;br/&gt;mso-ligatures:none&quot;&gt;通过机器学习方法建模得到的模型往往具有较高的计算效率，并且建模方式灵活，在一定程度上减弱了对复杂电化学原理的依赖。然而由于依赖于实验数据，泛化能力较差等原因，目前的快速充电策略设计研究暂未广泛应用此类电池模型。&lt;/span&gt;&lt;/b&gt;&lt;span style=&quot;font-size: 10pt; font-family: 宋体;&quot;&gt;（&lt;/span&gt;&lt;span style=&quot;font-size: 10pt; font-family: &amp;quot;Times New Roman&amp;quot;, serif;&quot; lang=&quot;EN-US&quot;&gt;2.2&lt;/span&gt;&lt;span style=&quot;font-size: 10pt; font-family: 宋体;&quot;&gt;机器学习建模方法&lt;/span&gt;&lt;span style=&quot;font-size: 10pt; font-family: &amp;quot;Times New Roman&amp;quot;, serif;&quot; lang=&quot;EN-US&quot;&gt;/&lt;/span&gt;&lt;span style=&quot;font-size: 10pt; font-family: 宋体;&quot;&gt;第&lt;/span&gt;&lt;span style=&quot;font-size: 10pt; font-family: &amp;quot;Times New Roman&amp;quot;, serif;&quot; lang=&quot;EN-US&quot;&gt;1&lt;/span&gt;&lt;span style=&quot;font-size: 10pt; font-family: 宋体;&quot;&gt;段）&lt;/span&gt;&lt;span style=&quot;font-size: 9pt; font-family: Helvetica, sans-serif;&quot; lang=&quot;EN-US&quot;&gt;&lt;/span&gt;&lt;/p&gt;&lt;p style=&quot;margin: 7.8pt 0cm 3.9pt; line-height: normal; background-image: initial; background-position: initial; background-size: initial; background-repeat: initial; background-attachment: initial; background-origin: initial; background-clip: initial;&quot; class=&quot;MsoNormal&quot;&gt;&lt;br&gt;&lt;/p&gt;&lt;p style=&quot;margin-bottom: 0.0001pt; text-align: justify; line-height: normal; background-image: initial; background-position: initial; background-size: initial; background-repeat: initial; background-attachment: initial; background-origin: initial; background-clip: initial;&quot; class=&quot;MsoNormal&quot;&gt;&lt;span style=&quot;font-size: 10pt; font-family: 宋体;&quot;&gt;（&lt;/span&gt;&lt;span style=&quot;font-size: 10pt; font-family: &amp;quot;Times New Roman&amp;quot;, serif;&quot; lang=&quot;EN-US&quot;&gt;2&lt;/span&gt;&lt;span style=&quot;font-size: 10pt; font-family: 宋体;&quot;&gt;）针对这些缺点，可以考虑利用小样本学习&lt;sup&gt;&lt;span lang=&quot;EN-US&quot;&gt;[128]&lt;/span&gt;&lt;/sup&gt;、迁移学习&lt;sup&gt;&lt;span lang=&quot;EN-US&quot;&gt;[129]&lt;/span&gt;&lt;/sup&gt;等方法对建模过程进行改善。除此之外，如何利用电池中的物理信息增强机器学习模型也是十分有意义的研究方向&lt;sup&gt;&lt;span lang=&quot;EN-US&quot;&gt;[130]&lt;/span&gt;&lt;/sup&gt;。&lt;/span&gt;&lt;b&gt;&lt;span style=&quot;font-size:10.0pt;font-family:宋体;mso-bidi-font-family:Helvetica;&lt;br/&gt;color:#6600FF;mso-font-kerning:0pt;mso-ligatures:none&quot;&gt;因此尝试利用现有的机器学习电池模型&lt;span lang=&quot;EN-US&quot;&gt;/&lt;/span&gt;开发适用于快速充电设计的电池模型是具有潜力的研究方向。&lt;/span&gt;&lt;/b&gt;&lt;span style=&quot;font-size: 10pt; font-family: 宋体;&quot;&gt;（&lt;/span&gt;&lt;span style=&quot;font-size: 10pt; font-family: &amp;quot;Times New Roman&amp;quot;, serif;&quot; lang=&quot;EN-US&quot;&gt;2.2&lt;/span&gt;&lt;span style=&quot;font-size: 10pt; font-family: 宋体;&quot;&gt;机器学习建模方法&lt;/span&gt;&lt;span style=&quot;font-size: 10pt; font-family: &amp;quot;Times New Roman&amp;quot;, serif;&quot; lang=&quot;EN-US&quot;&gt;/&lt;/span&gt;&lt;span style=&quot;font-size: 10pt; font-family: 宋体;&quot;&gt;第&lt;/span&gt;&lt;span style=&quot;font-size: 10pt; font-family: &amp;quot;Times New Roman&amp;quot;, serif;&quot; lang=&quot;EN-US&quot;&gt;2&lt;/span&gt;&lt;span style=&quot;font-size: 10pt; font-family: 宋体;&quot;&gt;段）&lt;/span&gt;&lt;span style=&quot;font-size: 9pt; font-family: Helvetica, sans-serif;&quot; lang=&quot;EN-US&quot;&gt;&lt;/span&gt;&lt;/p&gt;&lt;p style=&quot;margin-bottom: 0.0001pt; text-align: justify; line-height: normal; background-image: initial; background-position: initial; background-size: initial; background-repeat: initial; background-attachment: initial; background-origin: initial; background-clip: initial;&quot; class=&quot;MsoNormal&quot;&gt;&lt;span style=&quot;font-size: 10pt; font-family: 宋体;&quot;&gt;&lt;br&gt;&lt;/span&gt;&lt;/p&gt;&lt;p style=&quot;margin-bottom: 0.0001pt; line-height: 20pt; background-image: initial; background-position: initial; background-size: initial; background-repeat: initial; background-attachment: initial; background-origin: initial; background-clip: initial;&quot; class=&quot;MsoNormal&quot;&gt;&lt;span style=&quot;font-size: 12pt; font-family: 宋体;&quot;&gt;意见&lt;span lang=&quot;EN-US&quot;&gt;7&lt;/span&gt;：&lt;span lang=&quot;EN-US&quot;&gt;2.2&lt;/span&gt;的机器学习建模方法介绍的都是估计&lt;span lang=&quot;EN-US&quot;&gt;SOC&lt;/span&gt;，老化的，并没有快充相关的机器学习算法。建议作者进行修改。&lt;/span&gt;&lt;span style=&quot;font-size: 9pt; font-family: Helvetica, sans-serif;&quot; lang=&quot;EN-US&quot;&gt;&lt;/span&gt;&lt;/p&gt;&lt;p style=&quot;margin: 7.8pt 0cm 3.9pt; text-align: justify; line-height: normal; background-image: initial; background-position: initial; background-size: initial; background-repeat: initial; background-attachment: initial; background-origin: initial; background-clip: initial;&quot; class=&quot;MsoNormal&quot;&gt;&lt;b&gt;&lt;span style=&quot;font-size:12.0pt;font-family:宋体;mso-bidi-font-family:Helvetica;&lt;br/&gt;color:#6600FF;mso-font-kerning:0pt;mso-ligatures:none&quot;&gt;回复：感谢您提出的建议，除了具有应用潜力的研究，我们在&lt;span lang=&quot;EN-US&quot;&gt;2.2&lt;/span&gt;机器学习建模方法部分补充了现有的应用了机器学习电池模型的研究介绍，具体补充内容如下。&lt;span lang=&quot;EN-US&quot;&gt;&lt;/span&gt;&lt;/span&gt;&lt;/b&gt;&lt;/p&gt;&lt;p style=&quot;margin-bottom: 0.0001pt; text-align: justify; line-height: normal; background-image: initial; background-position: initial; background-size: initial; background-repeat: initial; background-attachment: initial; background-origin: initial; background-clip: initial;&quot; class=&quot;MsoNormal&quot;&gt;&lt;span style=&quot;font-size: 10pt; font-family: 宋体;&quot;&gt;在电压预测方面，&lt;/span&gt;&lt;span style=&quot;font-size: 10pt; font-family: &amp;quot;Times New Roman&amp;quot;, serif;&quot; lang=&quot;EN-US&quot;&gt;Li&lt;/span&gt;&lt;span style=&quot;font-size: 10pt; font-family: 宋体;&quot;&gt;等&lt;/span&gt;&lt;sup&gt;&lt;span style=&quot;font-size: 10pt; font-family: &amp;quot;Times New Roman&amp;quot;, serif;&quot; lang=&quot;EN-US&quot;&gt;[124]&lt;/span&gt;&lt;/sup&gt;&lt;span style=&quot;font-size: 10pt; font-family: 宋体;&quot;&gt;通过&lt;/span&gt;&lt;span style=&quot;font-size: 10pt; font-family: &amp;quot;Times New Roman&amp;quot;, serif;&quot; lang=&quot;EN-US&quot;&gt;P2D&lt;/span&gt;&lt;span style=&quot;font-size: 10pt; font-family: 宋体;&quot;&gt;模型仿真生成不同工况下的电池状态响应数据，并将这些数据用于训练一个可以模拟电池各种状态动态响应的深度神经网络。经验证，该网络的输出与验证数据之间的相对误差在&lt;/span&gt;&lt;span style=&quot;font-size: 10pt; font-family: &amp;quot;Times New Roman&amp;quot;, serif;&quot; lang=&quot;EN-US&quot;&gt;2.93%&lt;/span&gt;&lt;span style=&quot;font-size: 10pt; font-family: 宋体;&quot;&gt;以内。在&lt;/span&gt;&lt;span style=&quot;font-size: 10pt; font-family: &amp;quot;Times New Roman&amp;quot;, serif;&quot; lang=&quot;EN-US&quot;&gt;SOC&lt;/span&gt;&lt;span style=&quot;font-size: 10pt; font-family: 宋体;&quot;&gt;估计方面，&lt;/span&gt;&lt;span style=&quot;font-size: 10pt; font-family: &amp;quot;Times New Roman&amp;quot;, serif;&quot; lang=&quot;EN-US&quot;&gt;Chemali&lt;/span&gt;&lt;span style=&quot;font-size: 10pt; font-family: 宋体;&quot;&gt;等&lt;/span&gt;&lt;sup&gt;&lt;span style=&quot;font-size: 10pt; font-family: &amp;quot;Times New Roman&amp;quot;, serif;&quot; lang=&quot;EN-US&quot;&gt;[119]&lt;/span&gt;&lt;/sup&gt;&lt;span style=&quot;font-size: 10pt; font-family: 宋体;&quot;&gt;利用一种长短时记忆&lt;/span&gt;&lt;span style=&quot;font-size: 10pt; font-family: &amp;quot;Times New Roman&amp;quot;, serif;&quot; lang=&quot;EN-US&quot;&gt;(Long&lt;br&gt;short term memory, LSTM)&lt;/span&gt;&lt;span style=&quot;font-size: 10pt; font-family: 宋体;&quot;&gt;网络实现了准确的&lt;/span&gt;&lt;span style=&quot;font-size: 10pt; font-family: &amp;quot;Times New Roman&amp;quot;, serif;&quot; lang=&quot;EN-US&quot;&gt;SOC&lt;/span&gt;&lt;span style=&quot;font-size: 10pt; font-family: 宋体;&quot;&gt;估计。在温度预测方面，&lt;/span&gt;&lt;span style=&quot;font-size: 10pt; font-family: &amp;quot;Times New Roman&amp;quot;, serif;&quot; lang=&quot;EN-US&quot;&gt;Pang&lt;/span&gt;&lt;span style=&quot;font-size: 10pt; font-family: 宋体;&quot;&gt;等&lt;/span&gt;&lt;sup&gt;&lt;span style=&quot;font-size: 10pt; font-family: &amp;quot;Times New Roman&amp;quot;, serif;&quot; lang=&quot;EN-US&quot;&gt;[123]&lt;/span&gt;&lt;/sup&gt;&lt;span style=&quot;font-size: 10pt; font-family: 宋体;&quot;&gt;提出了一种基于双向&lt;/span&gt;&lt;span style=&quot;font-size: 10pt; font-family: &amp;quot;Times New Roman&amp;quot;, serif;&quot; lang=&quot;EN-US&quot;&gt;LSTM&lt;/span&gt;&lt;span style=&quot;font-size: 10pt; font-family: 宋体;&quot;&gt;网络的产热率预测模型，并利用贝叶斯优化方法确定了最优的模型参数。此外，针对分布参数系统的时空分离建模技术也被用于设计简化模型&lt;/span&gt;&lt;sup&gt;&lt;span style=&quot;font-size: 10pt; font-family: &amp;quot;Times New Roman&amp;quot;, serif;&quot; lang=&quot;EN-US&quot;&gt;[125-126]&lt;/span&gt;&lt;/sup&gt;&lt;span style=&quot;font-size: 10pt; font-family: 宋体;&quot;&gt;。&lt;/span&gt;&lt;span style=&quot;font-size: 10pt; font-family: 宋体;&quot;&gt;在老化模型方面，&lt;/span&gt;&lt;span style=&quot;font-size: 10pt; font-family: &amp;quot;Times New Roman&amp;quot;, serif;&quot; lang=&quot;EN-US&quot;&gt;Severson&lt;/span&gt;&lt;span style=&quot;font-size: 10pt; font-family: 宋体;&quot;&gt;等&lt;/span&gt;&lt;sup&gt;&lt;span style=&quot;font-size: 10pt; font-family: &amp;quot;Times New Roman&amp;quot;, serif;&quot; lang=&quot;EN-US&quot;&gt;[116]&lt;/span&gt;&lt;/sup&gt;&lt;span style=&quot;font-size: 10pt; font-family: 宋体;&quot;&gt;利用弹性网络&lt;/span&gt;&lt;span style=&quot;font-size: 10pt; font-family: &amp;quot;Times New Roman&amp;quot;, serif;&quot; lang=&quot;EN-US&quot;&gt;Elastic&lt;br&gt;Net&lt;/span&gt;&lt;span style=&quot;font-size: 10pt; font-family: 宋体;&quot;&gt;建立了一种早期预测模型，用于预测电池的&lt;/span&gt;&lt;span style=&quot;font-size: 10pt; font-family: &amp;quot;Times New Roman&amp;quot;, serif;&quot; lang=&quot;EN-US&quot;&gt;RUL&lt;/span&gt;&lt;span style=&quot;font-size: 10pt; font-family: 宋体;&quot;&gt;。&lt;/span&gt;&lt;b&gt;&lt;span style=&quot;font-size:10.0pt;font-family:宋体;mso-bidi-font-family:Helvetica;&lt;br/&gt;color:#6600FF;mso-font-kerning:0pt;mso-ligatures:none&quot;&gt;该模型能够根据电池前&lt;/span&gt;&lt;/b&gt;&lt;b&gt;&lt;span style=&quot;font-size:10.0pt;font-family:&amp;quot;Times New Roman&amp;quot;,serif;&lt;br/&gt;mso-fareast-font-family:宋体;color:#6600FF;mso-font-kerning:0pt;mso-ligatures:&lt;br/&gt;none&quot; lang=&quot;EN-US&quot;&gt;100&lt;/span&gt;&lt;/b&gt;&lt;b&gt;&lt;span style=&quot;font-size:10.0pt;font-family:宋体;mso-bidi-font-family:&lt;br/&gt;Helvetica;color:#6600FF;mso-font-kerning:0pt;mso-ligatures:none&quot;&gt;轮的容量衰减数据预测电池最终的循环使用寿命。为了减少在快速充电策略设计过程中的协议测试次数，&lt;/span&gt;&lt;/b&gt;&lt;b&gt;&lt;span style=&quot;font-size:10.0pt;font-family:&amp;quot;Times New Roman&amp;quot;,serif;&lt;br/&gt;mso-fareast-font-family:宋体;color:#6600FF;mso-font-kerning:0pt;mso-ligatures:&lt;br/&gt;none&quot; lang=&quot;EN-US&quot;&gt;Attia&lt;/span&gt;&lt;/b&gt;&lt;b&gt;&lt;span style=&quot;font-size:10.0pt;font-family:宋体;&lt;br/&gt;mso-bidi-font-family:Helvetica;color:#6600FF;mso-font-kerning:0pt;mso-ligatures:&lt;br/&gt;none&quot;&gt;等&lt;/span&gt;&lt;/b&gt;&lt;b&gt;&lt;sup&gt;&lt;span style=&quot;font-size:10.0pt;font-family:&lt;br/&gt;&amp;quot;Times New Roman&amp;quot;,serif;mso-fareast-font-family:宋体;color:#6600FF;mso-font-kerning:&lt;br/&gt;0pt;mso-ligatures:none&quot; lang=&quot;EN-US&quot;&gt;[44]&lt;/span&gt;&lt;/sup&gt;&lt;/b&gt;&lt;b&gt;&lt;span style=&quot;font-size:10.0pt;&lt;br/&gt;font-family:宋体;mso-bidi-font-family:Helvetica;color:#6600FF;mso-font-kerning:&lt;br/&gt;0pt;mso-ligatures:none&quot;&gt;引入了这种早期预测模型，大大减少了单次协议测试的充放电次数，提高了优化实验的效率。&lt;/span&gt;&lt;/b&gt;&lt;span style=&quot;font-size: 10pt; font-family: &amp;quot;Times New Roman&amp;quot;, serif;&quot; lang=&quot;EN-US&quot;&gt;Wang&lt;/span&gt;&lt;span style=&quot;font-size: 10pt; font-family: 宋体;&quot;&gt;等&lt;/span&gt;&lt;sup&gt;&lt;span style=&quot;font-size: 10pt; font-family: &amp;quot;Times New Roman&amp;quot;, serif;&quot; lang=&quot;EN-US&quot;&gt;[121]&lt;/span&gt;&lt;/sup&gt;&lt;span style=&quot;font-size: 10pt; font-family: 宋体;&quot;&gt;提出了一种基于&lt;/span&gt;&lt;span style=&quot;font-size: 10pt; font-family: &amp;quot;Times New Roman&amp;quot;, serif;&quot; lang=&quot;EN-US&quot;&gt;LSTM&lt;/span&gt;&lt;span style=&quot;font-size: 10pt; font-family: 宋体;&quot;&gt;网络的电池寿命预测方法，并利用迁移学习方法减少了模型训练所需的数据量。（&lt;/span&gt;&lt;span style=&quot;font-size: 10pt; font-family: &amp;quot;Times New Roman&amp;quot;, serif;&quot; lang=&quot;EN-US&quot;&gt;2.2&lt;/span&gt;&lt;span style=&quot;font-size: 10pt; font-family: 宋体;&quot;&gt;机器学习建模方法&lt;/span&gt;&lt;span style=&quot;font-size: 10pt; font-family: &amp;quot;Times New Roman&amp;quot;, serif;&quot; lang=&quot;EN-US&quot;&gt;/&lt;/span&gt;&lt;span style=&quot;font-size: 10pt; font-family: 宋体;&quot;&gt;第&lt;/span&gt;&lt;span style=&quot;font-size: 10pt; font-family: &amp;quot;Times New Roman&amp;quot;, serif;&quot; lang=&quot;EN-US&quot;&gt;2&lt;/span&gt;&lt;span style=&quot;font-size: 10pt; font-family: 宋体;&quot;&gt;段）&lt;/span&gt;&lt;span style=&quot;font-size: 10pt; font-family: &amp;quot;Times New Roman&amp;quot;, serif;&quot; lang=&quot;EN-US&quot;&gt;&lt;/span&gt;&lt;/p&gt;&lt;p style=&quot;margin-bottom: 0.0001pt; text-align: justify; line-height: normal; background-image: initial; background-position: initial; background-size: initial; background-repeat: initial; background-attachment: initial; background-origin: initial; background-clip: initial;&quot; class=&quot;MsoNormal&quot;&gt;&lt;span style=&quot;font-size: 10pt; font-family: &amp;quot;Times New Roman&amp;quot;, serif;&quot; lang=&quot;EN-US&quot;&gt;&amp;nbsp;&lt;/span&gt;&lt;/p&gt;&lt;p style=&quot;margin-bottom: 0.0001pt; line-height: 20pt; background-image: initial; background-position: initial; background-size: initial; background-repeat: initial; background-attachment: initial; background-origin: initial; background-clip: initial;&quot; class=&quot;MsoNormal&quot;&gt;&lt;span style=&quot;font-size: 12pt; font-family: 宋体;&quot;&gt;意见&lt;span lang=&quot;EN-US&quot;&gt;8&lt;/span&gt;：文章的整体结构有待改进。论文中电池模型建立部分的内容没有和充电问题描述，充电方法设计两个部分关联起来。导致阅读的时候，感觉到电池模型建立脱离了文章主题。&lt;/span&gt;&lt;span style=&quot;font-size: 9pt; font-family: Helvetica, sans-serif;&quot; lang=&quot;EN-US&quot;&gt;&lt;/span&gt;&lt;/p&gt;&lt;p style=&quot;margin-bottom: 0.0001pt; line-height: normal; background-image: initial; background-position: initial; background-size: initial; background-repeat: initial; background-attachment: initial; background-origin: initial; background-clip: initial;&quot; class=&quot;MsoNormal&quot;&gt;&lt;b&gt;&lt;span style=&quot;font-size:12.0pt;font-family:宋体;mso-bidi-font-family:Helvetica;&lt;br/&gt;color:#6600FF;mso-font-kerning:0pt;mso-ligatures:none&quot;&gt;回复：感谢您的建议，在撰写电池模型建立部分的初稿时，我们过于聚焦于电池模型本身，导致电池模型建立部分未能很好地融入快速充电策略设计的主题。为了改善这个重要的问题，我们对该章节进行了以下调整：&lt;/span&gt;&lt;/b&gt;&lt;b&gt;&lt;span style=&quot;font-size:9.0pt;&lt;br/&gt;font-family:&amp;quot;Helvetica&amp;quot;,sans-serif;mso-fareast-font-family:宋体;color:#6600FF;&lt;br/&gt;mso-font-kerning:0pt;mso-ligatures:none&quot; lang=&quot;EN-US&quot;&gt;&lt;/span&gt;&lt;/b&gt;&lt;/p&gt;&lt;p style=&quot;margin-bottom: 0.0001pt; line-height: normal; background-image: initial; background-position: initial; background-size: initial; background-repeat: initial; background-attachment: initial; background-origin: initial; background-clip: initial;&quot; class=&quot;MsoNormal&quot;&gt;&lt;b&gt;&lt;span style=&quot;font-size:12.0pt;font-family:&amp;quot;Times New Roman&amp;quot;,serif;&lt;br/&gt;mso-fareast-font-family:宋体;color:#6600FF;mso-font-kerning:0pt;mso-ligatures:&lt;br/&gt;none&quot; lang=&quot;EN-US&quot;&gt;1.&lt;/span&gt;&lt;/b&gt;&lt;b&gt;&lt;span style=&quot;font-size:12.0pt;font-family:宋体;mso-bidi-font-family:Helvetica;&lt;br/&gt;color:#6600FF;mso-font-kerning:0pt;mso-ligatures:none&quot;&gt;调整了该章节与第三章节（快速充电设计方法）之间的部分内容；&lt;/span&gt;&lt;/b&gt;&lt;b&gt;&lt;span style=&quot;font-size:9.0pt;&lt;br/&gt;font-family:&amp;quot;Helvetica&amp;quot;,sans-serif;mso-fareast-font-family:宋体;color:#6600FF;&lt;br/&gt;mso-font-kerning:0pt;mso-ligatures:none&quot; lang=&quot;EN-US&quot;&gt;&lt;/span&gt;&lt;/b&gt;&lt;/p&gt;&lt;p style=&quot;margin-bottom: 0.0001pt; line-height: normal; background-image: initial; background-position: initial; background-size: initial; background-repeat: initial; background-attachment: initial; background-origin: initial; background-clip: initial;&quot; class=&quot;MsoNormal&quot;&gt;&lt;b&gt;&lt;span style=&quot;font-size:12.0pt;font-family:&amp;quot;Times New Roman&amp;quot;,serif;&lt;br/&gt;mso-fareast-font-family:宋体;color:#6600FF;mso-font-kerning:0pt;mso-ligatures:&lt;br/&gt;none&quot; lang=&quot;EN-US&quot;&gt;2.&lt;/span&gt;&lt;/b&gt;&lt;b&gt;&lt;span style=&quot;font-size:12.0pt;font-family:宋体;mso-ascii-font-family:&amp;quot;Times New Roman&amp;quot;;&lt;br/&gt;mso-hansi-font-family:&amp;quot;Times New Roman&amp;quot;;mso-bidi-font-family:&amp;quot;Times New Roman&amp;quot;;&lt;br/&gt;color:#6600FF;mso-font-kerning:0pt;mso-ligatures:none&quot;&gt;在机器学习模型的介绍中&lt;/span&gt;&lt;/b&gt;&lt;b&gt;&lt;span style=&quot;font-size:12.0pt;font-family:&lt;br/&gt;宋体;mso-bidi-font-family:Helvetica;color:#6600FF;mso-font-kerning:0pt;&lt;br/&gt;mso-ligatures:none&quot;&gt;补充了其于快速充电设计中的应用方法，在机器学习模型的小节中补充了该模型于快速充电设计的应用前景；&lt;/span&gt;&lt;/b&gt;&lt;b&gt;&lt;span style=&quot;font-size:9.0pt;&lt;br/&gt;font-family:&amp;quot;Helvetica&amp;quot;,sans-serif;mso-fareast-font-family:宋体;color:#6600FF;&lt;br/&gt;mso-font-kerning:0pt;mso-ligatures:none&quot; lang=&quot;EN-US&quot;&gt;&lt;/span&gt;&lt;/b&gt;&lt;/p&gt;&lt;p style=&quot;margin-bottom: 0.0001pt; line-height: normal; background-image: initial; background-position: initial; background-size: initial; background-repeat: initial; background-attachment: initial; background-origin: initial; background-clip: initial;&quot; class=&quot;MsoNormal&quot;&gt;&lt;b&gt;&lt;span style=&quot;font-size:12.0pt;font-family:&amp;quot;Times New Roman&amp;quot;,serif;&lt;br/&gt;mso-fareast-font-family:宋体;color:#6600FF;mso-font-kerning:0pt;mso-ligatures:&lt;br/&gt;none&quot; lang=&quot;EN-US&quot;&gt;3.&lt;/span&gt;&lt;/b&gt;&lt;b&gt;&lt;span style=&quot;font-size:12.0pt;font-family:宋体;mso-bidi-font-family:Helvetica;&lt;br/&gt;color:#6600FF;mso-font-kerning:0pt;mso-ligatures:none&quot;&gt;删减了不必要的内容，调整了文章的整体结构。&lt;span lang=&quot;EN-US&quot;&gt;&lt;/span&gt;&lt;/span&gt;&lt;/b&gt;&lt;/p&gt;&lt;p style=&quot;margin-bottom: 0.0001pt; text-align: justify; line-height: normal; background-image: initial; background-position: initial; background-size: initial; background-repeat: initial; background-attachment: initial; background-origin: initial; background-clip: initial;&quot; class=&quot;MsoNormal&quot;&gt;&lt;br&gt;&lt;/p&gt;&lt;p style=&quot;margin-bottom: 0.0001pt; line-height: normal; background-image: initial; background-position: initial; background-size: initial; background-repeat: initial; background-attachment: initial; background-origin: initial; background-clip: initial;&quot; class=&quot;MsoNormal&quot;&gt;&lt;b&gt;&lt;span style=&quot;font-size:12.0pt;font-family:宋体;mso-bidi-font-family:Helvetica;&lt;br/&gt;color:#6600FF;mso-font-kerning:0pt;mso-ligatures:none&quot;&gt;综上，通过上述修改，强调了稿件的第二章节与主题的联系，使得全文的中心主题连贯一致，具体的修改内容可以参见新提交稿件的第二章节。&lt;/span&gt;&lt;/b&gt;&lt;b&gt;&lt;span style=&quot;font-size:9.0pt;&lt;br/&gt;font-family:&amp;quot;Helvetica&amp;quot;,sans-serif;mso-fareast-font-family:宋体;color:#6600FF;&lt;br/&gt;mso-font-kerning:0pt;mso-ligatures:none&quot; lang=&quot;EN-US&quot;&gt;&lt;/span&gt;&lt;/b&gt;&lt;/p&gt;" style="rounded=0;whiteSpace=wrap;html=1;align=left;verticalAlign=top;spacingLeft=4;" parent="1" vertex="1">
          <mxGeometry x="-180" y="40" width="1200" height="1020" as="geometry" />
        </mxCell>
      </root>
    </mxGraphModel>
  </diagram>
</mxfile>
